RobotoAvar2-YOPQ2-opsz144.ufo
<glyph name="three" format="2">
  <advance width="1156"/>
  <unicode hex="0033"/>
  <outline>
    <contour>
      <point x="80" y="380" type="qcurve" smooth="yes"/>
      <point x="80" y="390" type="line"/>
      <point x="266" y="390" type="line"/>
      <point x="266" y="380" type="line" smooth="yes"/>
      <point x="266" y="190"/>
      <point x="426" y="-23"/>
      <point x="558" y="-23" type="qcurve" smooth="yes"/>
      <point x="690" y="-23"/>
      <point x="848" y="190"/>
      <point x="848" y="400" type="qcurve" smooth="yes"/>
      <point x="848" y="540"/>
      <point x="670" y="760"/>
      <point x="520" y="759" type="qcurve" smooth="yes"/>
      <point x="405" y="759" type="line"/>
      <point x="405" y="766" type="line"/>
      <point x="520" y="766" type="line" smooth="yes"/>
      <point x="668" y="766"/>
      <point x="798" y="983"/>
      <point x="798" y="1090" type="qcurve" smooth="yes"/>
      <point x="798" y="1280"/>
      <point x="668" y="1479"/>
      <point x="558" y="1479" type="qcurve" smooth="yes"/>
      <point x="441" y="1479"/>
      <point x="306" y="1275"/>
      <point x="306" y="1100" type="qcurve" smooth="yes"/>
      <point x="306" y="1090" type="line"/>
      <point x="120" y="1090" type="line"/>
      <point x="120" y="1100" type="line" smooth="yes"/>
      <point x="120" y="1260"/>
      <point x="362" y="1486"/>
      <point x="558" y="1486" type="qcurve" smooth="yes"/>
      <point x="748" y="1486"/>
      <point x="990" y="1270"/>
      <point x="990" y="1100" type="qcurve" smooth="yes"/>
      <point x="990" y="999"/>
      <point x="874" y="809"/>
      <point x="764" y="766" type="qcurve"/>
      <point x="764" y="762" type="line"/>
      <point x="890" y="730"/>
      <point x="1042" y="540"/>
      <point x="1042" y="401" type="qcurve" smooth="yes"/>
      <point x="1042" y="200"/>
      <point x="768" y="-30"/>
      <point x="558" y="-30" type="qcurve" smooth="yes"/>
      <point x="336" y="-30"/>
      <point x="80" y="200"/>
    </contour>
  </outline>
</glyph>
<glyph name="nine" format="2">
  <advance width="1156"/>
  <unicode hex="0039"/>
  <outline>
    <contour>
      <point x="72" y="1002" type="qcurve" smooth="yes"/>
      <point x="72" y="1218"/>
      <point x="346" y="1486"/>
      <point x="556" y="1486" type="qcurve" smooth="yes"/>
      <point x="766" y="1486"/>
      <point x="1068" y="1182"/>
      <point x="1068" y="842" type="qcurve" smooth="yes"/>
      <point x="1068" y="812" type="line" smooth="yes"/>
      <point x="1068" y="459"/>
      <point x="657" y="0"/>
      <point x="277" y="0" type="qcurve" smooth="yes"/>
      <point x="256" y="0" type="line"/>
      <point x="256" y="7" type="line"/>
      <point x="276" y="7" type="line" smooth="yes"/>
      <point x="556" y="7"/>
      <point x="880" y="479"/>
      <point x="880" y="812" type="qcurve" smooth="yes"/>
      <point x="880" y="842" type="line" smooth="yes"/>
      <point x="880" y="1166"/>
      <point x="696" y="1479"/>
      <point x="556" y="1479" type="qcurve" smooth="yes"/>
      <point x="416" y="1479"/>
      <point x="262" y="1214"/>
      <point x="262" y="1002" type="qcurve" smooth="yes"/>
      <point x="262" y="783"/>
      <point x="419" y="527"/>
      <point x="556" y="527" type="qcurve" smooth="yes"/>
      <point x="686" y="527"/>
      <point x="887" y="787"/>
      <point x="887" y="1002" type="qcurve"/>
      <point x="956" y="1002" type="line"/>
      <point x="956" y="786"/>
      <point x="756" y="520"/>
      <point x="556" y="520" type="qcurve" smooth="yes"/>
      <point x="357" y="520"/>
      <point x="72" y="786"/>
    </contour>
  </outline>
</glyph>
<glyph name="at" format="2">
  <advance width="2110"/>
  <unicode hex="0040"/>
  <outline>
    <contour>
      <point x="615" y="400" type="qcurve" smooth="yes"/>
      <point x="615" y="680"/>
      <point x="910" y="1052"/>
      <point x="1101" y="1052" type="qcurve" smooth="yes"/>
      <point x="1200" y="1052"/>
      <point x="1344" y="985"/>
      <point x="1390" y="946" type="qcurve"/>
      <point x="1480" y="946" type="line"/>
      <point x="1360" y="350" type="line" smooth="yes"/>
      <point x="1329" y="196"/>
      <point x="1410" y="7"/>
      <point x="1520" y="7" type="qcurve" smooth="yes"/>
      <point x="1636" y="7"/>
      <point x="1816" y="414"/>
      <point x="1816" y="650" type="qcurve" smooth="yes"/>
      <point x="1816" y="949"/>
      <point x="1452" y="1479"/>
      <point x="1100" y="1479" type="qcurve" smooth="yes"/>
      <point x="739" y="1479"/>
      <point x="300" y="799"/>
      <point x="300" y="460" type="qcurve" smooth="yes"/>
      <point x="300" y="62"/>
      <point x="652" y="-439"/>
      <point x="1000" y="-439" type="qcurve" smooth="yes"/>
      <point x="1140" y="-439"/>
      <point x="1328" y="-393"/>
      <point x="1400" y="-349" type="qcurve"/>
      <point x="1400" y="-356" type="line"/>
      <point x="1330" y="-400"/>
      <point x="1140" y="-446"/>
      <point x="1000" y="-446" type="qcurve" smooth="yes"/>
      <point x="640" y="-446"/>
      <point x="114" y="40"/>
      <point x="114" y="460" type="qcurve" smooth="yes"/>
      <point x="114" y="880"/>
      <point x="700" y="1486"/>
      <point x="1100" y="1486" type="qcurve" smooth="yes"/>
      <point x="1500" y="1486"/>
      <point x="1996" y="1000"/>
      <point x="1996" y="650" type="qcurve" smooth="yes"/>
      <point x="1996" y="360"/>
      <point x="1720" y="0"/>
      <point x="1520" y="0" type="qcurve" smooth="yes"/>
      <point x="1404" y="0"/>
      <point x="1244" y="124"/>
      <point x="1211" y="243" type="qcurve"/>
      <point x="1174" y="133"/>
      <point x="1020" y="0"/>
      <point x="920" y="0" type="qcurve" smooth="yes"/>
      <point x="780" y="0"/>
      <point x="615" y="220"/>
    </contour>
    <contour>
      <point x="805" y="400" type="qcurve" smooth="yes"/>
      <point x="805" y="192"/>
      <point x="840" y="8"/>
      <point x="920" y="8" type="qcurve" smooth="yes"/>
      <point x="1002" y="8"/>
      <point x="1138" y="193"/>
      <point x="1165" y="324" type="qcurve" smooth="yes"/>
      <point x="1303" y="983" type="line"/>
      <point x="1273" y="1005"/>
      <point x="1172" y="1045"/>
      <point x="1126" y="1045" type="qcurve" smooth="yes"/>
      <point x="1019" y="1045"/>
      <point x="805" y="629"/>
    </contour>
  </outline>
</glyph>
<glyph name="A" format="2">
  <advance width="1270"/>
  <unicode hex="0041"/>
  <anchor x="635" y="0" name="bottom"/>
  <anchor x="1169" y="0" name="ogonek"/>
  <anchor x="635" y="1456" name="top"/>
  <anchor x="258" y="1074" name="tonos"/>
  <outline>
    <contour>
      <point x="0" y="0" type="line"/>
      <point x="549" y="1476" type="line"/>
      <point x="721" y="1476" type="line"/>
      <point x="1270" y="0" type="line"/>
      <point x="1075" y="0" type="line"/>
      <point x="674" y="1104" type="line" smooth="yes"/>
      <point x="662" y="1137"/>
      <point x="645" y="1199"/>
      <point x="638" y="1232" type="qcurve"/>
      <point x="628" y="1232" type="line"/>
      <point x="621" y="1199"/>
      <point x="604" y="1137"/>
      <point x="592" y="1104" type="qcurve" smooth="yes"/>
      <point x="187" y="0" type="line"/>
    </contour>
    <contour>
      <point x="261" y="461" type="line"/>
      <point x="267" y="468" type="line"/>
      <point x="1000" y="468" type="line"/>
      <point x="1005" y="461" type="line"/>
    </contour>
  </outline>
</glyph>
<glyph name="B" format="2">
  <advance width="1260"/>
  <unicode hex="0042"/>
  <anchor x="630" y="0" name="bottom"/>
  <anchor x="630" y="1456" name="top"/>
  <outline>
    <contour>
      <point x="170" y="0" type="line"/>
      <point x="170" y="1456" type="line"/>
      <point x="650" y="1456" type="line" smooth="yes"/>
      <point x="870" y="1456"/>
      <point x="1122" y="1270"/>
      <point x="1122" y="1111" type="qcurve" smooth="yes"/>
      <point x="1122" y="950"/>
      <point x="1000" y="798"/>
      <point x="910" y="768" type="qcurve"/>
      <point x="910" y="764" type="line"/>
      <point x="1022" y="733"/>
      <point x="1160" y="560"/>
      <point x="1160" y="385" type="qcurve" smooth="yes"/>
      <point x="1160" y="220"/>
      <point x="897" y="0"/>
      <point x="680" y="0" type="qcurve" smooth="yes"/>
    </contour>
    <contour>
      <point x="358" y="7" type="line"/>
      <point x="680" y="7" type="line" smooth="yes"/>
      <point x="849" y="7"/>
      <point x="970" y="221"/>
      <point x="970" y="385" type="qcurve" smooth="yes"/>
      <point x="970" y="540"/>
      <point x="830" y="762"/>
      <point x="680" y="762" type="qcurve" smooth="yes"/>
      <point x="278" y="762" type="line"/>
      <point x="278" y="769" type="line"/>
      <point x="680" y="769" type="line" smooth="yes"/>
      <point x="795" y="769"/>
      <point x="932" y="960"/>
      <point x="932" y="1111" type="qcurve" smooth="yes"/>
      <point x="932" y="1267"/>
      <point x="781" y="1449"/>
      <point x="650" y="1449" type="qcurve" smooth="yes"/>
      <point x="358" y="1449" type="line"/>
    </contour>
  </outline>
</glyph>
<glyph name="C" format="2">
  <advance width="1359"/>
  <unicode hex="0043"/>
  <anchor x="710" y="0" name="bottom"/>
  <anchor x="720" y="1456" name="top"/>
  <outline>
    <contour>
      <point x="115" y="682" type="qcurve" smooth="yes"/>
      <point x="115" y="774" type="line" smooth="yes"/>
      <point x="115" y="1110"/>
      <point x="460" y="1486"/>
      <point x="720" y="1486" type="qcurve" smooth="yes"/>
      <point x="980" y="1486"/>
      <point x="1275" y="1201"/>
      <point x="1275" y="1000" type="qcurve" smooth="yes"/>
      <point x="1275" y="990" type="line"/>
      <point x="1083" y="990" type="line"/>
      <point x="1083" y="1000" type="line" smooth="yes"/>
      <point x="1083" y="1199"/>
      <point x="905" y="1479"/>
      <point x="720" y="1479" type="qcurve" smooth="yes"/>
      <point x="532" y="1479"/>
      <point x="309" y="1105"/>
      <point x="309" y="774" type="qcurve" smooth="yes"/>
      <point x="309" y="682" type="line" smooth="yes"/>
      <point x="309" y="361"/>
      <point x="533" y="-23"/>
      <point x="720" y="-23" type="qcurve" smooth="yes"/>
      <point x="896" y="-23"/>
      <point x="1082" y="239"/>
      <point x="1082" y="456" type="qcurve" smooth="yes"/>
      <point x="1082" y="466" type="line"/>
      <point x="1274" y="466" type="line"/>
      <point x="1274" y="456" type="line" smooth="yes"/>
      <point x="1274" y="246"/>
      <point x="977" y="-30"/>
      <point x="720" y="-30" type="qcurve" smooth="yes"/>
      <point x="460" y="-30"/>
      <point x="115" y="346"/>
    </contour>
  </outline>
</glyph>
<glyph name="F" format="2">
  <advance width="1130"/>
  <unicode hex="0046"/>
  <anchor x="565" y="0" name="bottom"/>
  <anchor x="630" y="1457" name="top"/>
  <outline>
    <contour>
      <point x="170" y="0" type="line"/>
      <point x="170" y="1456" type="line"/>
      <point x="1072" y="1456" type="line"/>
      <point x="1072" y="1449" type="line"/>
      <point x="362" y="1449" type="line"/>
      <point x="362" y="0" type="line"/>
    </contour>
    <contour>
      <point x="272" y="721" type="line"/>
      <point x="272" y="728" type="line"/>
      <point x="973" y="728" type="line"/>
      <point x="973" y="721" type="line"/>
    </contour>
  </outline>
</glyph>
<glyph name="G" format="2">
  <advance width="1407"/>
  <unicode hex="0047"/>
  <anchor x="731" y="0" name="bottom"/>
  <anchor x="731" y="1456" name="top"/>
  <outline>
    <contour>
      <point x="115" y="682" type="qcurve" smooth="yes"/>
      <point x="115" y="774" type="line" smooth="yes"/>
      <point x="115" y="1110"/>
      <point x="460" y="1486"/>
      <point x="733" y="1486" type="qcurve" smooth="yes"/>
      <point x="980" y="1486"/>
      <point x="1261" y="1221"/>
      <point x="1277" y="1041" type="qcurve" smooth="yes"/>
      <point x="1277" y="1030" type="line"/>
      <point x="1086" y="1030" type="line"/>
      <point x="1086" y="1040" type="line" smooth="yes"/>
      <point x="1086" y="1203"/>
      <point x="902" y="1479"/>
      <point x="731" y="1479" type="qcurve" smooth="yes"/>
      <point x="530" y="1479"/>
      <point x="309" y="1100"/>
      <point x="309" y="774" type="qcurve" smooth="yes"/>
      <point x="309" y="682" type="line" smooth="yes"/>
      <point x="309" y="356"/>
      <point x="530" y="-23"/>
      <point x="750" y="-23" type="qcurve" smooth="yes"/>
      <point x="860" y="-23"/>
      <point x="1020" y="90"/>
      <point x="1092" y="163" type="qcurve"/>
      <point x="1092" y="721" type="line"/>
      <point x="730" y="721" type="line"/>
      <point x="730" y="728" type="line"/>
      <point x="1278" y="728" type="line"/>
      <point x="1278" y="160" type="line"/>
      <point x="1210" y="90"/>
      <point x="940" y="-30"/>
      <point x="750" y="-30" type="qcurve" smooth="yes"/>
      <point x="460" y="-30"/>
      <point x="115" y="346"/>
    </contour>
  </outline>
</glyph>
<glyph name="N" format="2">
  <advance width="1460"/>
  <unicode hex="004E"/>
  <anchor x="730" y="0" name="bottom"/>
  <anchor x="730" y="1456" name="top"/>
  <anchor x="1197" y="0" name="engtail"/>
  <outline>
    <contour>
      <point x="170" y="0" type="line"/>
      <point x="170" y="1456" type="line"/>
      <point x="370" y="1456" type="line"/>
      <point x="1031" y="449" type="line" smooth="yes"/>
      <point x="1051" y="419"/>
      <point x="1084" y="359"/>
      <point x="1096" y="334" type="qcurve"/>
      <point x="1104" y="334" type="line"/>
      <point x="1103" y="364"/>
      <point x="1102" y="439"/>
      <point x="1102" y="469" type="qcurve" smooth="yes"/>
      <point x="1102" y="1456" type="line"/>
      <point x="1290" y="1456" type="line"/>
      <point x="1290" y="0" type="line"/>
      <point x="1090" y="0" type="line"/>
      <point x="430" y="1006" type="line" smooth="yes"/>
      <point x="410" y="1036"/>
      <point x="377" y="1096"/>
      <point x="363" y="1121" type="qcurve"/>
      <point x="356" y="1121" type="line"/>
      <point x="357" y="1091"/>
      <point x="358" y="1016"/>
      <point x="358" y="986" type="qcurve" smooth="yes"/>
      <point x="358" y="0" type="line"/>
    </contour>
  </outline>
</glyph>
<glyph name="V" format="2">
  <advance width="1260"/>
  <unicode hex="0056"/>
  <anchor x="630" y="0" name="bottom"/>
  <anchor x="630" y="1456" name="top"/>
  <outline>
    <contour>
      <point x="0" y="1456" type="line"/>
      <point x="202" y="1456" type="line"/>
      <point x="591" y="383" type="line" smooth="yes"/>
      <point x="603" y="350"/>
      <point x="619" y="299"/>
      <point x="628" y="269" type="qcurve"/>
      <point x="637" y="269" type="line"/>
      <point x="646" y="299"/>
      <point x="662" y="350"/>
      <point x="674" y="383" type="qcurve" smooth="yes"/>
      <point x="1067" y="1456" type="line"/>
      <point x="1260" y="1456" type="line"/>
      <point x="716" y="-10" type="line"/>
      <point x="544" y="-10" type="line"/>
    </contour>
  </outline>
</glyph>
<glyph name="W" format="2">
  <advance width="1812"/>
  <unicode hex="0057"/>
  <anchor x="906" y="0" name="bottom"/>
  <anchor x="906" y="1456" name="top"/>
  <outline>
    <contour>
      <point x="408" y="-10" type="line"/>
      <point x="50" y="1456" type="line"/>
      <point x="239" y="1456" type="line"/>
      <point x="492" y="378" type="line" smooth="yes"/>
      <point x="500" y="344"/>
      <point x="506" y="303"/>
      <point x="510" y="270" type="qcurve"/>
      <point x="520" y="270" type="line"/>
      <point x="524" y="303"/>
      <point x="530" y="344"/>
      <point x="539" y="378" type="qcurve" smooth="yes"/>
      <point x="811" y="1456" type="line"/>
      <point x="1003" y="1456" type="line"/>
      <point x="1286" y="378" type="line" smooth="yes"/>
      <point x="1295" y="344"/>
      <point x="1301" y="303"/>
      <point x="1305" y="270" type="qcurve"/>
      <point x="1314" y="270" type="line"/>
      <point x="1318" y="303"/>
      <point x="1325" y="344"/>
      <point x="1333" y="378" type="qcurve" smooth="yes"/>
      <point x="1576" y="1456" type="line"/>
      <point x="1762" y="1456" type="line"/>
      <point x="1404" y="-10" type="line"/>
      <point x="1218" y="-10" type="line"/>
      <point x="937" y="1064" type="line" smooth="yes"/>
      <point x="928" y="1098"/>
      <point x="915" y="1159"/>
      <point x="910" y="1192" type="qcurve"/>
      <point x="902" y="1192" type="line"/>
      <point x="897" y="1159"/>
      <point x="884" y="1098"/>
      <point x="875" y="1064" type="qcurve" smooth="yes"/>
      <point x="594" y="-10" type="line"/>
    </contour>
  </outline>
</glyph>
<glyph name="X" format="2">
  <advance width="1206"/>
  <unicode hex="0058"/>
  <anchor x="601" y="0" name="bottom"/>
  <anchor x="601" y="1456" name="top"/>
  <anchor x="987" y="0" name="cy_descender"/>
  <outline>
    <contour>
      <point x="25" y="0" type="line"/>
      <point x="544" y="806" type="line"/>
      <point x="558" y="806" type="line"/>
      <point x="950" y="1456" type="line"/>
      <point x="1152" y="1456" type="line"/>
      <point x="662" y="670" type="line"/>
      <point x="648" y="670" type="line"/>
      <point x="227" y="0" type="line"/>
    </contour>
    <contour>
      <point x="47" y="1456" type="line"/>
      <point x="255" y="1456" type="line"/>
      <point x="651" y="806" type="line"/>
      <point x="661" y="806" type="line"/>
      <point x="1181" y="0" type="line"/>
      <point x="974" y="0" type="line"/>
      <point x="554" y="670" type="line"/>
      <point x="544" y="670" type="line"/>
    </contour>
  </outline>
</glyph>
<glyph name="Z" format="2">
  <advance width="1190"/>
  <unicode hex="005A"/>
  <anchor x="595" y="0" name="bottom"/>
  <anchor x="595" y="1456" name="top"/>
  <outline>
    <contour>
      <point x="-30" y="0" type="line"/>
      <point x="-30" y="7" type="line"/>
      <point x="969" y="1449" type="line"/>
      <point x="183" y="1449" type="line"/>
      <point x="183" y="1456" type="line"/>
      <point x="1184" y="1456" type="line"/>
      <point x="1184" y="1449" type="line"/>
      <point x="188" y="7" type="line"/>
      <point x="1124" y="7" type="line"/>
      <point x="1124" y="0" type="line"/>
    </contour>
  </outline>
</glyph>
<glyph name="d" format="2">
  <advance width="1170"/>
  <unicode hex="0064"/>
  <anchor x="585" y="0" name="bottom"/>
  <anchor x="810" y="1313" name="center"/>
  <anchor x="585" y="1536" name="top"/>
  <anchor x="1122" y="1052" name="topright"/>
  <outline>
    <contour>
      <point x="836" y="1536" type="line"/>
      <point x="1022" y="1536" type="line"/>
      <point x="1022" y="0" type="line"/>
      <point x="854" y="0" type="line"/>
      <point x="846" y="137" type="line"/>
      <point x="836" y="137" type="line"/>
    </contour>
    <contour>
      <point x="556" y="1065" type="qcurve"/>
      <point x="432" y="1065"/>
      <point x="274" y="796"/>
      <point x="274" y="550" type="qcurve" smooth="yes"/>
      <point x="274" y="506" type="line" smooth="yes"/>
      <point x="274" y="276"/>
      <point x="417" y="-13"/>
      <point x="554" y="-13" type="qcurve" smooth="yes"/>
      <point x="703" y="-13"/>
      <point x="878" y="297"/>
      <point x="878" y="505" type="qcurve" smooth="yes"/>
      <point x="878" y="532" type="line" smooth="yes"/>
      <point x="878" y="740"/>
      <point x="727" y="1065"/>
    </contour>
    <contour>
      <point x="556" y="1072" type="qcurve"/>
      <point x="731" y="1072"/>
      <point x="945" y="765"/>
      <point x="945" y="532" type="qcurve" smooth="yes"/>
      <point x="945" y="505" type="line" smooth="yes"/>
      <point x="945" y="285"/>
      <point x="714" y="-20"/>
      <point x="554" y="-20" type="qcurve"/>
      <point x="331" y="-20"/>
      <point x="84" y="280"/>
      <point x="84" y="510" type="qcurve" smooth="yes"/>
      <point x="84" y="542" type="line" smooth="yes"/>
      <point x="84" y="772"/>
      <point x="327" y="1072"/>
    </contour>
  </outline>
</glyph>
<glyph name="k" format="2">
  <advance width="1028"/>
  <unicode hex="006B"/>
  <anchor x="514" y="0" name="bottom"/>
  <anchor x="514" y="1536" name="top"/>
  <outline>
    <contour>
      <point x="148" y="0" type="line"/>
      <point x="148" y="1536" type="line"/>
      <point x="334" y="1536" type="line"/>
      <point x="334" y="0" type="line"/>
    </contour>
    <contour>
      <point x="835" y="0" type="line"/>
      <point x="415" y="545" type="line"/>
      <point x="532" y="671" type="line"/>
      <point x="1044" y="0" type="line"/>
    </contour>
    <contour>
      <point x="241" y="356" type="line"/>
      <point x="241" y="370" type="line"/>
      <point x="885" y="1052" type="line"/>
      <point x="894" y="1052" type="line"/>
    </contour>
  </outline>
</glyph>
<glyph name="n" format="2">
  <advance width="1138"/>
  <unicode hex="006E"/>
  <anchor x="569" y="0" name="bottom"/>
  <anchor x="569" y="1052" name="top"/>
  <anchor x="907" y="0" name="engtail"/>
  <outline>
    <contour>
      <point x="148" y="0" type="line"/>
      <point x="148" y="1052" type="line"/>
      <point x="316" y="1052" type="line"/>
      <point x="334" y="911" type="line"/>
      <point x="334" y="0" type="line"/>
    </contour>
    <contour>
      <point x="241" y="728" type="qcurve"/>
      <point x="241" y="746" type="line"/>
      <point x="312" y="932"/>
      <point x="533" y="1072"/>
      <point x="652" y="1072" type="qcurve" smooth="yes"/>
      <point x="811" y="1072"/>
      <point x="1000" y="891"/>
      <point x="1000" y="679" type="qcurve" smooth="yes"/>
      <point x="1000" y="0" type="line"/>
      <point x="814" y="0" type="line"/>
      <point x="814" y="681" type="line" smooth="yes"/>
      <point x="814" y="929"/>
      <point x="726" y="1065"/>
      <point x="637" y="1065" type="qcurve" smooth="yes"/>
      <point x="533" y="1065"/>
      <point x="342" y="948"/>
    </contour>
  </outline>
</glyph>
<glyph name="o" format="2">
  <advance width="1162"/>
  <unicode hex="006F"/>
  <anchor x="581" y="0" name="bottom"/>
  <anchor x="581" y="526" name="center"/>
  <anchor x="762" y="0" name="ogonek"/>
  <anchor x="581" y="1052" name="top"/>
  <anchor x="760" y="1052" name="topright"/>
  <anchor x="178" y="536" name="yu_dash"/>
  <outline>
    <contour>
      <point x="85" y="510" type="qcurve" smooth="yes"/>
      <point x="85" y="542" type="line" smooth="yes"/>
      <point x="85" y="780"/>
      <point x="355" y="1082"/>
      <point x="581" y="1082" type="qcurve" smooth="yes"/>
      <point x="807" y="1082"/>
      <point x="1077" y="780"/>
      <point x="1077" y="542" type="qcurve" smooth="yes"/>
      <point x="1077" y="510" type="line" smooth="yes"/>
      <point x="1077" y="272"/>
      <point x="807" y="-30"/>
      <point x="581" y="-30" type="qcurve" smooth="yes"/>
      <point x="355" y="-30"/>
      <point x="85" y="272"/>
    </contour>
    <contour>
      <point x="275" y="542" type="qcurve" smooth="yes"/>
      <point x="275" y="510" type="line" smooth="yes"/>
      <point x="275" y="253"/>
      <point x="434" y="-23"/>
      <point x="581" y="-23" type="qcurve" smooth="yes"/>
      <point x="728" y="-23"/>
      <point x="887" y="253"/>
      <point x="887" y="510" type="qcurve" smooth="yes"/>
      <point x="887" y="542" type="line" smooth="yes"/>
      <point x="887" y="799"/>
      <point x="728" y="1075"/>
      <point x="581" y="1075" type="qcurve" smooth="yes"/>
      <point x="434" y="1075"/>
      <point x="275" y="799"/>
    </contour>
  </outline>
</glyph>
<glyph name="s" format="2">
  <advance width="1010"/>
  <unicode hex="0073"/>
  <anchor x="505" y="0" name="bottom"/>
  <anchor x="505" y="1052" name="top"/>
  <outline>
    <contour>
      <point x="80" y="310" type="line"/>
      <point x="266" y="310" type="line"/>
      <point x="266" y="305" type="line" smooth="yes"/>
      <point x="266" y="134"/>
      <point x="403" y="-23"/>
      <point x="510" y="-23" type="qcurve" smooth="yes"/>
      <point x="621" y="-23"/>
      <point x="747" y="130"/>
      <point x="747" y="280" type="qcurve" smooth="yes"/>
      <point x="747" y="350"/>
      <point x="645" y="425"/>
      <point x="475" y="465" type="qcurve" smooth="yes"/>
      <point x="313" y="505"/>
      <point x="105" y="647"/>
      <point x="105" y="780" type="qcurve" smooth="yes"/>
      <point x="105" y="910"/>
      <point x="320" y="1082"/>
      <point x="500" y="1082" type="qcurve" smooth="yes"/>
      <point x="680" y="1082"/>
      <point x="900" y="911"/>
      <point x="900" y="765" type="qcurve" smooth="yes"/>
      <point x="900" y="760" type="line"/>
      <point x="715" y="760" type="line"/>
      <point x="715" y="769" type="line" smooth="yes"/>
      <point x="715" y="911"/>
      <point x="615" y="1075"/>
      <point x="500" y="1075" type="qcurve" smooth="yes"/>
      <point x="389" y="1075"/>
      <point x="288" y="920"/>
      <point x="288" y="790" type="qcurve" smooth="yes"/>
      <point x="288" y="730"/>
      <point x="405" y="659"/>
      <point x="575" y="619" type="qcurve" smooth="yes"/>
      <point x="745" y="579"/>
      <point x="930" y="430"/>
      <point x="930" y="290" type="qcurve" smooth="yes"/>
      <point x="930" y="150"/>
      <point x="720" y="-30"/>
      <point x="510" y="-30" type="qcurve" smooth="yes"/>
      <point x="300" y="-30"/>
      <point x="80" y="153"/>
      <point x="80" y="305" type="qcurve" smooth="yes"/>
    </contour>
  </outline>
</glyph>
<glyph name="y" format="2">
  <advance width="942"/>
  <unicode hex="0079"/>
  <anchor x="778" y="0" name="bottom"/>
  <anchor x="489" y="1052" name="top"/>
  <outline>
    <contour>
      <point x="50" y="-416" type="qcurve"/>
      <point x="50" y="-408" type="line"/>
      <point x="92" y="-421"/>
      <point x="131" y="-428"/>
      <point x="162" y="-428" type="qcurve" smooth="yes"/>
      <point x="215" y="-428"/>
      <point x="274" y="-354"/>
      <point x="402" y="4" type="qcurve"/>
      <point x="402" y="5" type="line"/>
      <point x="10" y="1052" type="line"/>
      <point x="182" y="1052" type="line"/>
      <point x="439" y="360" type="line" smooth="yes"/>
      <point x="454" y="320"/>
      <point x="475" y="250"/>
      <point x="483" y="220" type="qcurve"/>
      <point x="489" y="220" type="line"/>
      <point x="498" y="250"/>
      <point x="520" y="320"/>
      <point x="534" y="360" type="qcurve" smooth="yes"/>
      <point x="771" y="1052" type="line"/>
      <point x="942" y="1052" type="line"/>
      <point x="520" y="-140" type="line" smooth="yes"/>
      <point x="470" y="-280"/>
      <point x="300" y="-436"/>
      <point x="162" y="-436" type="qcurve" smooth="yes"/>
      <point x="138" y="-436"/>
      <point x="89" y="-428"/>
    </contour>
  </outline>
</glyph>
<glyph name="z" format="2">
  <advance width="992"/>
  <unicode hex="007A"/>
  <anchor x="498" y="0" name="bottom"/>
  <anchor x="498" y="1052" name="top"/>
  <outline>
    <contour>
      <point x="121" y="0" type="line"/>
      <point x="121" y="7" type="line"/>
      <point x="660" y="1045" type="line"/>
      <point x="159" y="1045" type="line"/>
      <point x="159" y="1052" type="line"/>
      <point x="854" y="1052" type="line"/>
      <point x="854" y="1045" type="line"/>
      <point x="320" y="7" type="line"/>
      <point x="876" y="7" type="line"/>
      <point x="876" y="0" type="line"/>
    </contour>
  </outline>
</glyph>
<glyph name="twosuperior" format="2">
  <advance width="751"/>
  <unicode hex="00B2"/>
  <outline>
    <contour>
      <point x="97" y="697" type="line"/>
      <point x="97" y="704" type="line"/>
      <point x="373" y="1068" type="line" smooth="yes"/>
      <point x="428" y="1141"/>
      <point x="475" y="1216"/>
      <point x="475" y="1249" type="qcurve" smooth="yes"/>
      <point x="475" y="1361"/>
      <point x="417" y="1481"/>
      <point x="364" y="1481" type="qcurve" smooth="yes"/>
      <point x="304" y="1481"/>
      <point x="239" y="1340"/>
      <point x="239" y="1208" type="qcurve" smooth="yes"/>
      <point x="239" y="1198" type="line"/>
      <point x="77" y="1198" type="line"/>
      <point x="77" y="1208" type="line" smooth="yes"/>
      <point x="77" y="1339"/>
      <point x="224" y="1487"/>
      <point x="366" y="1487" type="qcurve" smooth="yes"/>
      <point x="500" y="1487"/>
      <point x="652" y="1359"/>
      <point x="652" y="1251" type="qcurve" smooth="yes"/>
      <point x="652" y="1171"/>
      <point x="542" y="1054"/>
      <point x="468" y="971" type="qcurve"/>
      <point x="301" y="704" type="line"/>
      <point x="683" y="704" type="line"/>
      <point x="683" y="697" type="line"/>
    </contour>
  </outline>
</glyph>
<glyph name="eth" format="2">
  <advance width="1114"/>
  <unicode hex="00F0"/>
  <outline>
    <contour>
      <point x="270" y="1575" type="qcurve"/>
      <point x="271" y="1581" type="line"/>
      <point x="608" y="1506"/>
      <point x="1029" y="1008"/>
      <point x="1029" y="633" type="qcurve"/>
      <point x="1029" y="535" type="line"/>
      <point x="1029" y="289"/>
      <point x="763" y="-20"/>
      <point x="561" y="-20" type="qcurve" smooth="yes"/>
      <point x="351" y="-20"/>
      <point x="85" y="265"/>
      <point x="85" y="468" type="qcurve" smooth="yes"/>
      <point x="85" y="698"/>
      <point x="340" y="978"/>
      <point x="533" y="978" type="qcurve" smooth="yes"/>
      <point x="702" y="978"/>
      <point x="933" y="749"/>
      <point x="933" y="614" type="qcurve"/>
      <point x="864" y="614" type="line"/>
      <point x="864" y="732"/>
      <point x="700" y="971"/>
      <point x="577" y="971" type="qcurve" smooth="yes"/>
      <point x="446" y="971"/>
      <point x="271" y="701"/>
      <point x="271" y="468" type="qcurve" smooth="yes"/>
      <point x="271" y="265"/>
      <point x="442" y="-13"/>
      <point x="561" y="-13" type="qcurve" smooth="yes"/>
      <point x="702" y="-13"/>
      <point x="843" y="289"/>
      <point x="843" y="535" type="qcurve" smooth="yes"/>
      <point x="843" y="635" type="line" smooth="yes"/>
      <point x="843" y="1006"/>
      <point x="517" y="1502"/>
    </contour>
    <contour>
      <point x="893" y="1491" type="line"/>
      <point x="356" y="1125" type="line"/>
      <point x="352" y="1130" type="line"/>
      <point x="889" y="1495" type="line"/>
    </contour>
  </outline>
</glyph>
<glyph name="primemod" format="2">
  <advance width="600"/>
  <unicode hex="02B9"/>
  <outline>
    <contour>
      <point x="224" y="1502" type="line"/>
      <point x="413" y="1502" type="line"/>
      <point x="229" y="994" type="line"/>
      <point x="225" y="995" type="line"/>
    </contour>
  </outline>
</glyph>
<glyph name="tildecomb" format="2">
  <unicode hex="0303"/>
  <anchor x="0" y="1052" name="_top"/>
  <anchor x="0" y="1487" name="top"/>
  <outline>
    <contour>
      <point x="-345" y="1281" type="line"/>
      <point x="-323" y="1369"/>
      <point x="-229" y="1482"/>
      <point x="-143" y="1482" type="qcurve" smooth="yes"/>
      <point x="-91" y="1482"/>
      <point x="-10" y="1459"/>
      <point x="26" y="1433" type="qcurve" smooth="yes"/>
      <point x="60" y="1409"/>
      <point x="126" y="1367"/>
      <point x="164" y="1367" type="qcurve" smooth="yes"/>
      <point x="225" y="1367"/>
      <point x="298" y="1391"/>
      <point x="321" y="1427" type="qcurve"/>
      <point x="324" y="1423" type="line"/>
      <point x="307" y="1330"/>
      <point x="240" y="1215"/>
      <point x="150" y="1215" type="qcurve" smooth="yes"/>
      <point x="101" y="1215"/>
      <point x="4" y="1253"/>
      <point x="-25" y="1275" type="qcurve" smooth="yes"/>
      <point x="-54" y="1297"/>
      <point x="-121" y="1328"/>
      <point x="-159" y="1328" type="qcurve" smooth="yes"/>
      <point x="-226" y="1328"/>
      <point x="-317" y="1312"/>
      <point x="-342" y="1277" type="qcurve"/>
    </contour>
  </outline>
</glyph>
<glyph name="breveinvertedcomb" format="2">
  <unicode hex="030F"/>
  <anchor x="0" y="1052" name="_top"/>
  <anchor x="0" y="1540" name="top"/>
  <outline>
    <contour>
      <point x="-331" y="1272" type="qcurve"/>
      <point x="-336" y="1274" type="line"/>
      <point x="-296" y="1376"/>
      <point x="-126" y="1540"/>
      <point x="0" y="1540" type="qcurve" smooth="yes"/>
      <point x="126" y="1540"/>
      <point x="296" y="1376"/>
      <point x="336" y="1273" type="qcurve"/>
      <point x="331" y="1271" type="line"/>
      <point x="298" y="1311"/>
      <point x="146" y="1376"/>
      <point x="0" y="1376" type="qcurve" smooth="yes"/>
      <point x="-147" y="1376"/>
      <point x="-299" y="1311"/>
    </contour>
  </outline>
</glyph>
<glyph name="Omega" format="2">
  <advance width="1478"/>
  <unicode hex="03A9"/>
  <anchor x="5" y="1074" name="tonos"/>
  <outline>
    <contour>
      <point x="115" y="0" type="line"/>
      <point x="115" y="7" type="line"/>
      <point x="447" y="7" type="line"/>
      <point x="447" y="309" type="line"/>
      <point x="291" y="371"/>
      <point x="115" y="626"/>
      <point x="115" y="835" type="qcurve"/>
      <point x="115" y="891" type="line"/>
      <point x="115" y="1171"/>
      <point x="455" y="1486"/>
      <point x="739" y="1486" type="qcurve"/>
      <point x="1023" y="1486"/>
      <point x="1363" y="1171"/>
      <point x="1363" y="891" type="qcurve"/>
      <point x="1363" y="835" type="line"/>
      <point x="1363" y="626"/>
      <point x="1187" y="371"/>
      <point x="1031" y="309" type="qcurve"/>
      <point x="1031" y="7" type="line"/>
      <point x="1363" y="7" type="line"/>
      <point x="1363" y="0" type="line"/>
      <point x="859" y="0" type="line"/>
      <point x="859" y="313" type="line"/>
      <point x="1008" y="378"/>
      <point x="1169" y="648"/>
      <point x="1169" y="835" type="qcurve"/>
      <point x="1169" y="891" type="line"/>
      <point x="1169" y="1174"/>
      <point x="946" y="1479"/>
      <point x="739" y="1479" type="qcurve"/>
      <point x="532" y="1479"/>
      <point x="309" y="1174"/>
      <point x="309" y="891" type="qcurve"/>
      <point x="309" y="835" type="line"/>
      <point x="309" y="647"/>
      <point x="468" y="377"/>
      <point x="619" y="313" type="qcurve"/>
      <point x="619" y="0" type="line"/>
    </contour>
  </outline>
</glyph>
<glyph name="delta" format="2">
  <advance width="1142"/>
  <unicode hex="03B4"/>
  <outline>
    <contour>
      <point x="561" y="-30" type="qcurve" smooth="yes"/>
      <point x="337" y="-30"/>
      <point x="85" y="231"/>
      <point x="85" y="439" type="qcurve" smooth="yes"/>
      <point x="85" y="469" type="line" smooth="yes"/>
      <point x="85" y="679"/>
      <point x="349" y="962"/>
      <point x="599" y="984" type="qcurve"/>
      <point x="605" y="980" type="line"/>
      <point x="395" y="920"/>
      <point x="274" y="685"/>
      <point x="274" y="492" type="qcurve" smooth="yes"/>
      <point x="274" y="472" type="line" smooth="yes"/>
      <point x="274" y="230"/>
      <point x="429" y="-23"/>
      <point x="561" y="-23" type="qcurve" smooth="yes"/>
      <point x="693" y="-23"/>
      <point x="868" y="227"/>
      <point x="868" y="482" type="qcurve" smooth="yes"/>
      <point x="868" y="501" type="line" smooth="yes"/>
      <point x="868" y="674"/>
      <point x="761" y="889"/>
      <point x="624" y="966" type="qcurve" smooth="yes"/>
      <point x="451" y="1050"/>
      <point x="270" y="1193"/>
      <point x="270" y="1296" type="qcurve"/>
      <point x="270" y="1385"/>
      <point x="481" y="1556"/>
      <point x="673" y="1556" type="qcurve" smooth="yes"/>
      <point x="773" y="1556"/>
      <point x="918" y="1518"/>
      <point x="979" y="1487" type="qcurve"/>
      <point x="975" y="1480" type="line"/>
      <point x="912" y="1507"/>
      <point x="754" y="1549"/>
      <point x="673" y="1549" type="qcurve" smooth="yes"/>
      <point x="562" y="1549"/>
      <point x="454" y="1380"/>
      <point x="454" y="1301" type="qcurve"/>
      <point x="454" y="1179"/>
      <point x="525" y="1021"/>
      <point x="628" y="971" type="qcurve" smooth="yes"/>
      <point x="863" y="848"/>
      <point x="1057" y="644"/>
      <point x="1057" y="495" type="qcurve" smooth="yes"/>
      <point x="1057" y="466" type="line" smooth="yes"/>
      <point x="1057" y="229"/>
      <point x="773" y="-30"/>
    </contour>
  </outline>
</glyph>
<glyph name="Ka" format="2">
  <advance width="1266"/>
  <unicode hex="041A"/>
  <guideline x="480" y="796" angle="90" identifier="LxfLwWU0sJ"/>
  <anchor x="657" y="1456" name="top"/>
  <anchor x="1053" y="0" name="cy_descender"/>
  <outline>
    <contour>
      <point x="1050" y="0" type="line"/>
      <point x="422" y="740" type="line"/>
      <point x="582" y="823" type="line"/>
      <point x="1286" y="0" type="line"/>
    </contour>
    <contour>
      <point x="265" y="779" type="line"/>
      <point x="598" y="779" type="line"/>
      <point x="1143" y="1405" type="line"/>
      <point x="1152" y="1405" type="line"/>
      <point x="600" y="772" type="line"/>
      <point x="265" y="772" type="line"/>
    </contour>
    <contour>
      <point x="170" y="0" type="line"/>
      <point x="170" y="1456" type="line"/>
      <point x="362" y="1456" type="line"/>
      <point x="362" y="0" type="line"/>
    </contour>
  </outline>
</glyph>
<glyph name="Che" format="2">
  <advance width="1388"/>
  <unicode hex="0427"/>
  <guideline x="1123" y="741" angle="90" identifier="nfCxFSb4p1"/>
  <anchor x="1123" y="0" name="cy_descender"/>
  <outline>
    <contour>
      <point x="332" y="1032" type="line" smooth="yes"/>
      <point x="332" y="811"/>
      <point x="500" y="583"/>
      <point x="678" y="583" type="qcurve" smooth="yes"/>
      <point x="772" y="583"/>
      <point x="988" y="601"/>
      <point x="1122" y="623" type="qcurve"/>
      <point x="1122" y="617" type="line"/>
      <point x="988.2932112512" y="595.0481391606"/>
      <point x="763" y="576"/>
      <point x="678" y="576" type="qcurve" smooth="yes"/>
      <point x="367" y="576"/>
      <point x="140" y="807"/>
      <point x="140" y="1035" type="qcurve" smooth="yes"/>
      <point x="140" y="1456" type="line"/>
      <point x="332" y="1456" type="line"/>
    </contour>
    <contour>
      <point x="1218" y="1456" type="line"/>
      <point x="1218" y="0" type="line"/>
      <point x="1026" y="0" type="line"/>
      <point x="1026" y="1456" type="line"/>
    </contour>
  </outline>
</glyph>
<glyph name="ka" format="2">
  <advance width="1043"/>
  <unicode hex="043A"/>
  <guideline x="241" y="553" angle="90" identifier="lmgRx0QBdK"/>
  <anchor x="588" y="1052" name="top"/>
  <anchor x="837" y="0" name="cy_descender"/>
  <outline>
    <contour>
      <point x="829" y="0" type="line"/>
      <point x="410" y="477" type="line"/>
      <point x="525" y="603" type="line"/>
      <point x="1058" y="0" type="line"/>
    </contour>
    <contour>
      <point x="241" y="531" type="line"/>
      <point x="476" y="531" type="line"/>
      <point x="939" y="1052" type="line"/>
      <point x="947" y="1052" type="line"/>
      <point x="478" y="524" type="line"/>
      <point x="241" y="524" type="line"/>
    </contour>
    <contour>
      <point x="334" y="1052" type="line"/>
      <point x="334" y="0" type="line"/>
      <point x="149" y="0" type="line"/>
      <point x="149" y="1052" type="line"/>
    </contour>
  </outline>
</glyph>
<glyph name="el" format="2">
  <advance width="1125"/>
  <unicode hex="043B"/>
  <outline>
    <contour>
      <point x="419" y="1045" type="line"/>
      <point x="396" y="490" type="line" smooth="yes"/>
      <point x="385" y="217"/>
      <point x="246" y="-22"/>
      <point x="86" y="-22" type="qcurve" smooth="yes"/>
      <point x="67" y="-22"/>
      <point x="29" y="-13"/>
      <point x="10" y="-4" type="qcurve"/>
      <point x="10" y="3" type="line"/>
      <point x="27" y="-4"/>
      <point x="64" y="-14"/>
      <point x="86" y="-14" type="qcurve" smooth="yes"/>
      <point x="162" y="-14"/>
      <point x="212" y="200"/>
      <point x="226" y="516" type="qcurve" smooth="yes"/>
      <point x="249" y="1052" type="line"/>
      <point x="977" y="1052" type="line"/>
      <point x="977" y="0" type="line"/>
      <point x="791" y="0" type="line"/>
      <point x="791" y="1045" type="line"/>
    </contour>
  </outline>
</glyph>
<glyph name="kabashkircyr" format="2">
  <advance width="1215"/>
  <unicode hex="04A1"/>
  <outline>
    <contour>
      <point x="1001" y="0" type="line"/>
      <point x="582" y="477" type="line"/>
      <point x="697" y="603" type="line"/>
      <point x="1230" y="0" type="line"/>
    </contour>
    <contour>
      <point x="413" y="531" type="line"/>
      <point x="648" y="531" type="line"/>
      <point x="1111" y="1052" type="line"/>
      <point x="1119" y="1052" type="line"/>
      <point x="650" y="524" type="line"/>
      <point x="413" y="524" type="line"/>
    </contour>
    <contour>
      <point x="506" y="1052" type="line"/>
      <point x="506" y="0" type="line"/>
      <point x="321" y="0" type="line"/>
      <point x="321" y="1045" type="line"/>
      <point x="30" y="1045" type="line"/>
      <point x="30" y="1052" type="line"/>
    </contour>
  </outline>
</glyph>
<glyph name="second" format="2">
  <advance width="1054"/>
  <unicode hex="2033"/>
  <outline>
    <contour>
      <point x="170" y="921" type="line"/>
      <point x="395" y="1559" type="line"/>
      <point x="588" y="1452" type="line"/>
      <point x="173" y="919" type="line"/>
    </contour>
    <contour>
      <point x="571" y="921" type="line"/>
      <point x="796" y="1559" type="line"/>
      <point x="989" y="1452" type="line"/>
      <point x="574" y="919" type="line"/>
    </contour>
  </outline>
</glyph>
<glyph name="liraTurkish" format="2">
  <advance width="1024"/>
  <unicode hex="20BA"/>
  <outline>
    <contour>
      <point x="6" y="416" type="line"/>
      <point x="6" y="423" type="line"/>
      <point x="856" y="801" type="line"/>
      <point x="850" y="791" type="line"/>
    </contour>
    <contour>
      <point x="180" y="0" type="line"/>
      <point x="180" y="1456" type="line"/>
      <point x="362" y="1456" type="line"/>
      <point x="362" y="7" type="line"/>
      <point x="438" y="7" type="line" smooth="yes"/>
      <point x="667" y="7"/>
      <point x="835" y="301"/>
      <point x="835" y="521" type="qcurve" smooth="yes"/>
      <point x="835" y="558" type="line"/>
      <point x="1015" y="558" type="line"/>
      <point x="1015" y="523" type="line" smooth="yes"/>
      <point x="1015" y="298"/>
      <point x="727" y="0"/>
      <point x="438" y="0" type="qcurve" smooth="yes"/>
    </contour>
    <contour>
      <point x="6" y="776" type="line"/>
      <point x="6" y="783" type="line"/>
      <point x="856" y="1161" type="line"/>
      <point x="850" y="1151" type="line"/>
    </contour>
  </outline>
</glyph>
<glyph name="Yu-dash.case" format="2">
  <advance width="557"/>
  <anchor x="0" y="750" name="_yu_dash"/>
  <anchor x="557" y="750" name="yu_dash"/>
  <outline>
    <contour>
      <point x="0" y="747" type="line"/>
      <point x="0" y="754" type="line"/>
      <point x="557" y="754" type="line"/>
      <point x="557" y="747" type="line"/>
    </contour>
  </outline>
</glyph>
<glyph name="Zhe.bgr" format="2">
  <advance width="1935"/>
  <outline>
    <contour>
      <point x="-20" y="0" type="line"/>
      <point x="656" y="890" type="line"/>
      <point x="775" y="756" type="line"/>
      <point x="211" y="0" type="line"/>
    </contour>
    <contour>
      <point x="869" y="0" type="line"/>
      <point x="869" y="1456" type="line"/>
      <point x="1061" y="1456" type="line"/>
      <point x="1061" y="0" type="line"/>
    </contour>
    <contour>
      <point x="1719" y="0" type="line"/>
      <point x="1155" y="756" type="line"/>
      <point x="1274" y="890" type="line"/>
      <point x="1950" y="0" type="line"/>
    </contour>
    <contour>
      <point x="102" y="1456" type="line"/>
      <point x="108" y="1456" type="line"/>
      <point x="954" y="505" type="line"/>
      <point x="954" y="498" type="line"/>
    </contour>
    <contour>
      <point x="1818" y="1456" type="line"/>
      <point x="1824" y="1456" type="line"/>
      <point x="972" y="498" type="line"/>
      <point x="972" y="505" type="line"/>
    </contour>
  </outline>
</glyph>
<glyph name="breve.cyrcomb" format="2">
  <anchor x="0" y="1052" name="_top"/>
  <anchor x="0" y="1534" name="top"/>
  <outline>
    <contour>
      <point x="0" y="1366" type="qcurve"/>
      <point x="128" y="1366"/>
      <point x="289" y="1396"/>
      <point x="328" y="1450" type="qcurve"/>
      <point x="334" y="1447" type="line"/>
      <point x="285" y="1325"/>
      <point x="112" y="1218"/>
      <point x="0" y="1218" type="qcurve"/>
      <point x="-112" y="1218"/>
      <point x="-285" y="1325"/>
      <point x="-334" y="1447" type="qcurve"/>
      <point x="-328" y="1450" type="line"/>
      <point x="-289" y="1396"/>
      <point x="-128" y="1366"/>
    </contour>
  </outline>
</glyph>
<glyph name="brevecomb-stack.case" format="2">
  <anchor x="0.0" y="1456" name="_top"/>
  <anchor x="0" y="1828" name="top"/>
  <outline>
    <contour>
      <point x="361" y="1833" type="qcurve"/>
      <point x="365" y="1831" type="line"/>
      <point x="328" y="1744"/>
      <point x="137" y="1597"/>
      <point x="0" y="1597" type="qcurve" smooth="yes"/>
      <point x="-122" y="1597"/>
      <point x="-318" y="1732"/>
      <point x="-364" y="1832" type="qcurve"/>
      <point x="-360" y="1835" type="line"/>
      <point x="-318" y="1802"/>
      <point x="-124" y="1756"/>
      <point x="0" y="1756" type="qcurve" smooth="yes"/>
      <point x="124" y="1756"/>
      <point x="311" y="1795"/>
    </contour>
  </outline>
</glyph>
<glyph name="brevecombstack.case" format="2">
  <anchor x="0" y="1536" name="_top"/>
  <anchor x="0" y="1910" name="top"/>
  <outline>
    <contour>
      <point x="361" y="1847" type="qcurve"/>
      <point x="365" y="1844" type="line"/>
      <point x="328" y="1757"/>
      <point x="137" y="1610"/>
      <point x="0" y="1610" type="qcurve" smooth="yes"/>
      <point x="-122" y="1610"/>
      <point x="-318" y="1745"/>
      <point x="-364" y="1845" type="qcurve"/>
      <point x="-360" y="1847" type="line"/>
      <point x="-301" y="1793"/>
      <point x="-102" y="1769"/>
      <point x="0" y="1769" type="qcurve" smooth="yes"/>
      <point x="116" y="1769"/>
      <point x="311" y="1806"/>
    </contour>
  </outline>
</glyph>
<glyph name="breveinvertedcomb-stack.case" format="2">
  <anchor x="0" y="1456" name="_top"/>
  <anchor x="0" y="1906" name="top"/>
  <outline>
    <contour>
      <point x="-360" y="1669" type="qcurve"/>
      <point x="-364" y="1672" type="line"/>
      <point x="-327" y="1759"/>
      <point x="-136" y="1906"/>
      <point x="1" y="1906" type="qcurve" smooth="yes"/>
      <point x="123" y="1906"/>
      <point x="319" y="1771"/>
      <point x="365" y="1671" type="qcurve"/>
      <point x="361" y="1669" type="line"/>
      <point x="302" y="1723"/>
      <point x="103" y="1747"/>
      <point x="1" y="1747" type="qcurve" smooth="yes"/>
      <point x="-115" y="1747"/>
      <point x="-310" y="1710"/>
    </contour>
  </outline>
</glyph>
<glyph name="diagonalbarl" format="2">
  <advance width="629"/>
  <outline>
    <contour>
      <point x="42" y="541" type="line"/>
      <point x="39" y="546" type="line"/>
      <point x="311" y="754" type="line"/>
      <point x="579" y="958" type="line"/>
      <point x="582" y="953" type="line"/>
      <point x="314" y="749" type="line"/>
    </contour>
  </outline>
</glyph>
<glyph name="hookabovecombstack.case" format="2">
  <anchor x="0" y="1536" name="_top"/>
  <anchor x="0" y="1968" name="top"/>
  <outline>
    <contour>
      <point x="-50" y="1554" type="line"/>
      <point x="-50" y="1601" type="line" smooth="yes"/>
      <point x="-50" y="1641"/>
      <point x="-45" y="1647"/>
      <point x="-33" y="1648" type="qcurve" smooth="yes"/>
      <point x="24" y="1654"/>
      <point x="43" y="1691"/>
      <point x="43" y="1778" type="qcurve" smooth="yes"/>
      <point x="43" y="1807"/>
      <point x="1" y="1833"/>
      <point x="-48" y="1833" type="qcurve" smooth="yes"/>
      <point x="-104" y="1833"/>
      <point x="-203" y="1804"/>
      <point x="-212" y="1797" type="qcurve"/>
      <point x="-260" y="1916" type="line"/>
      <point x="-229" y="1933"/>
      <point x="-93" y="1968"/>
      <point x="-19" y="1968" type="qcurve" smooth="yes"/>
      <point x="87" y="1968"/>
      <point x="197" y="1869"/>
      <point x="197" y="1785" type="qcurve" smooth="yes"/>
      <point x="197" y="1699"/>
      <point x="41" y="1651"/>
      <point x="-43" y="1641" type="qcurve"/>
      <point x="-43" y="1554" type="line"/>
    </contour>
  </outline>
</glyph>
<glyph name="nine.prop" format="2">
  <advance width="1136"/>
  <outline>
    <contour>
      <point x="61" y="992" type="qcurve" smooth="yes"/>
      <point x="61" y="1212"/>
      <point x="335" y="1486"/>
      <point x="545" y="1486" type="qcurve" smooth="yes"/>
      <point x="755" y="1486"/>
      <point x="1057" y="1182"/>
      <point x="1057" y="842" type="qcurve" smooth="yes"/>
      <point x="1057" y="812" type="line" smooth="yes"/>
      <point x="1057" y="432"/>
      <point x="645" y="-30"/>
      <point x="265" y="-30" type="qcurve" smooth="yes"/>
      <point x="245" y="-30" type="line"/>
      <point x="245" y="-23" type="line"/>
      <point x="265" y="-23" type="line" smooth="yes"/>
      <point x="575" y="-23"/>
      <point x="869" y="452"/>
      <point x="869" y="802" type="qcurve" smooth="yes"/>
      <point x="869" y="852" type="line" smooth="yes"/>
      <point x="869" y="1172"/>
      <point x="685" y="1479"/>
      <point x="545" y="1479" type="qcurve" smooth="yes"/>
      <point x="405" y="1479"/>
      <point x="251" y="1212"/>
      <point x="251" y="992" type="qcurve" smooth="yes"/>
      <point x="251" y="772"/>
      <point x="405" y="507"/>
      <point x="545" y="507" type="qcurve" smooth="yes"/>
      <point x="675" y="507"/>
      <point x="875" y="832"/>
      <point x="875" y="992" type="qcurve"/>
      <point x="945" y="992" type="line"/>
      <point x="945" y="772"/>
      <point x="705" y="500"/>
      <point x="545" y="500" type="qcurve" smooth="yes"/>
      <point x="305" y="500"/>
      <point x="61" y="772"/>
    </contour>
  </outline>
</glyph>
<glyph name="tildecombstack.case" format="2">
  <anchor x="0" y="1536" name="_top"/>
  <anchor x="0" y="1922" name="top"/>
  <outline>
    <contour>
      <point x="-275" y="1716" type="line"/>
      <point x="-265" y="1803"/>
      <point x="-175" y="1922"/>
      <point x="-108" y="1922" type="qcurve" smooth="yes"/>
      <point x="-73" y="1922"/>
      <point x="0" y="1900"/>
      <point x="36" y="1874" type="qcurve" smooth="yes"/>
      <point x="66" y="1852"/>
      <point x="132" y="1817"/>
      <point x="164" y="1817" type="qcurve" smooth="yes"/>
      <point x="224" y="1817"/>
      <point x="281" y="1833"/>
      <point x="300" y="1869" type="qcurve"/>
      <point x="303" y="1865" type="line"/>
      <point x="310" y="1792"/>
      <point x="220" y="1657"/>
      <point x="155" y="1657" type="qcurve" smooth="yes"/>
      <point x="106" y="1657"/>
      <point x="24" y="1692"/>
      <point x="-6" y="1712" type="qcurve" smooth="yes"/>
      <point x="-37" y="1733"/>
      <point x="-101" y="1770"/>
      <point x="-125" y="1770" type="qcurve" smooth="yes"/>
      <point x="-194" y="1770"/>
      <point x="-252" y="1748"/>
      <point x="-271" y="1713" type="qcurve"/>
    </contour>
  </outline>
</glyph>
<glyph name="uni20B2.rvrn" format="2">
  <advance width="1024"/>
  <outline>
    <contour>
      <point x="479" y="-190" type="line"/>
      <point x="479" y="2" type="line"/>
      <point x="497" y="2" type="line"/>
      <point x="497" y="2" type="line"/>
      <point x="627" y="2" type="line"/>
      <point x="627" y="2" type="line"/>
      <point x="649" y="2" type="line"/>
      <point x="649" y="-190" type="line"/>
    </contour>
    <contour>
      <point x="497" y="1478" type="line"/>
      <point x="497" y="1478" type="line"/>
      <point x="482" y="1478" type="line"/>
      <point x="482" y="1632" type="line"/>
      <point x="642" y="1632" type="line"/>
      <point x="642" y="1478" type="line"/>
      <point x="627" y="1478" type="line"/>
      <point x="627" y="1478" type="line"/>
    </contour>
    <contour>
      <point x="995" y="745" type="line"/>
      <point x="995" y="452" type="line" smooth="yes"/>
      <point x="995" y="232"/>
      <point x="775" y="-5"/>
      <point x="571" y="-5" type="qcurve" smooth="yes"/>
      <point x="341" y="-5"/>
      <point x="94" y="278"/>
      <point x="94" y="542" type="qcurve" smooth="yes"/>
      <point x="94" y="897" type="line" smooth="yes"/>
      <point x="94" y="1180"/>
      <point x="336" y="1485"/>
      <point x="557" y="1485" type="qcurve" smooth="yes"/>
      <point x="755" y="1485"/>
      <point x="993" y="1264"/>
      <point x="993" y="1055" type="qcurve" smooth="yes"/>
      <point x="993" y="1013" type="line"/>
      <point x="803" y="1013" type="line"/>
      <point x="803" y="1051" type="line" smooth="yes"/>
      <point x="803" y="1262"/>
      <point x="666" y="1478"/>
      <point x="557" y="1478" type="qcurve" smooth="yes"/>
      <point x="428" y="1478"/>
      <point x="288" y="1175"/>
      <point x="288" y="899" type="qcurve" smooth="yes"/>
      <point x="288" y="544" type="line" smooth="yes"/>
      <point x="288" y="286"/>
      <point x="436" y="2"/>
      <point x="571" y="2" type="qcurve" smooth="yes"/>
      <point x="690" y="2"/>
      <point x="823" y="234"/>
      <point x="823" y="433" type="qcurve" smooth="yes"/>
      <point x="823" y="738" type="line"/>
      <point x="686" y="738" type="line"/>
      <point x="686" y="745" type="line"/>
    </contour>
  </outline>
</glyph>
<glyph name="won.rvrn" format="2">
  <advance width="1796"/>
  <outline>
    <contour>
      <point x="473" y="-10" type="line"/>
      <point x="115" y="1456" type="line"/>
      <point x="289" y="1456" type="line"/>
      <point x="538" y="378" type="line"/>
      <point x="556" y="250" type="line"/>
      <point x="562" y="250" type="line"/>
      <point x="580" y="378" type="line" smooth="yes"/>
      <point x="798" y="1456" type="line"/>
      <point x="996" y="1456" type="line"/>
      <point x="1244" y="378" type="line"/>
      <point x="1262" y="250" type="line"/>
      <point x="1268" y="250" type="line"/>
      <point x="1286" y="378" type="line" smooth="yes"/>
      <point x="1505" y="1456" type="line"/>
      <point x="1667" y="1456" type="line"/>
      <point x="1349" y="-10" type="line"/>
      <point x="1171" y="-10" type="line"/>
      <point x="925" y="1100" type="line"/>
      <point x="904" y="1228" type="line"/>
      <point x="898" y="1228" type="line"/>
      <point x="877" y="1100" type="line" smooth="yes"/>
      <point x="651" y="-10" type="line"/>
    </contour>
    <contour>
      <point x="1463" y="950" type="line"/>
      <point x="1495" y="950" type="line"/>
      <point x="1495" y="950" type="line"/>
      <point x="1748" y="952" type="line"/>
      <point x="1748" y="945" type="line"/>
      <point x="1495" y="943" type="line"/>
      <point x="1495" y="943" type="line"/>
      <point x="1463" y="943" type="line"/>
    </contour>
    <contour>
      <point x="48" y="943" type="line"/>
      <point x="48" y="950" type="line"/>
      <point x="313" y="950" type="line"/>
      <point x="313" y="950" type="line"/>
      <point x="343" y="950" type="line"/>
      <point x="343" y="943" type="line"/>
      <point x="313" y="943" type="line"/>
      <point x="313" y="943" type="line"/>
    </contour>
    <contour>
      <point x="1390" y="595" type="line"/>
      <point x="1416" y="595" type="line"/>
      <point x="1416" y="595" type="line"/>
      <point x="1709" y="597" type="line"/>
      <point x="1709" y="590" type="line"/>
      <point x="1416" y="588" type="line"/>
      <point x="1416" y="588" type="line"/>
      <point x="1390" y="588" type="line"/>
    </contour>
    <contour>
      <point x="79" y="588" type="line"/>
      <point x="79" y="595" type="line"/>
      <point x="404" y="595" type="line"/>
      <point x="404" y="595" type="line"/>
      <point x="427" y="595" type="line"/>
      <point x="427" y="588" type="line"/>
      <point x="404" y="588" type="line"/>
      <point x="404" y="588" type="line"/>
    </contour>
  </outline>
</glyph>
<glyph name="yu-dash" format="2">
  <advance width="396"/>
  <anchor x="0" y="536" name="_yu_dash"/>
  <anchor x="396" y="536" name="yu_dash"/>
  <outline>
    <contour>
      <point x="0" y="533" type="line"/>
      <point x="0" y="540" type="line"/>
      <point x="396" y="540" type="line"/>
      <point x="396" y="533" type="line"/>
    </contour>
  </outline>
</glyph>
<glyph name="ze.bgr" format="2">
  <advance width="992"/>
  <outline>
    <contour>
      <point x="25" y="-20" type="qcurve" smooth="yes"/>
      <point x="25" y="-10" type="line"/>
      <point x="205" y="-10" type="line"/>
      <point x="205" y="-20" type="line" smooth="yes"/>
      <point x="205" y="-198"/>
      <point x="349" y="-423"/>
      <point x="471" y="-423" type="qcurve" smooth="yes"/>
      <point x="584" y="-423"/>
      <point x="736" y="-197"/>
      <point x="736" y="0" type="qcurve" smooth="yes"/>
      <point x="736" y="177"/>
      <point x="617" y="362"/>
      <point x="452" y="362" type="qcurve" smooth="yes"/>
      <point x="344" y="362" type="line"/>
      <point x="344" y="369" type="line"/>
      <point x="443" y="369" type="line" smooth="yes"/>
      <point x="584" y="369"/>
      <point x="686" y="573"/>
      <point x="686" y="690" type="qcurve" smooth="yes"/>
      <point x="686" y="872"/>
      <point x="576" y="1079"/>
      <point x="471" y="1079" type="qcurve" smooth="yes"/>
      <point x="375" y="1079"/>
      <point x="245" y="861"/>
      <point x="245" y="700" type="qcurve" smooth="yes"/>
      <point x="245" y="690" type="line"/>
      <point x="65" y="690" type="line"/>
      <point x="65" y="700" type="line" smooth="yes"/>
      <point x="65" y="863"/>
      <point x="290" y="1086"/>
      <point x="471" y="1086" type="qcurve" smooth="yes"/>
      <point x="646" y="1086"/>
      <point x="870" y="880"/>
      <point x="870" y="700" type="qcurve" smooth="yes"/>
      <point x="870" y="600"/>
      <point x="755" y="401"/>
      <point x="622" y="366" type="qcurve"/>
      <point x="622" y="362" type="line"/>
      <point x="771" y="353"/>
      <point x="922" y="159"/>
      <point x="922" y="1" type="qcurve" smooth="yes"/>
      <point x="922" y="-200"/>
      <point x="666.8289473684" y="-430"/>
      <point x="471" y="-430" type="qcurve" smooth="yes"/>
      <point x="263.7876106195" y="-430"/>
      <point x="25" y="-200"/>
    </contour>
  </outline>
</glyph>
<glyph name="zerosuperior" format="2">
  <advance width="787"/>
  <outline>
    <contour>
      <point x="67" y="1036" type="qcurve" smooth="yes"/>
      <point x="67" y="1140" type="line" smooth="yes"/>
      <point x="67" y="1300"/>
      <point x="233" y="1496"/>
      <point x="393" y="1496" type="qcurve" smooth="yes"/>
      <point x="553" y="1496"/>
      <point x="720" y="1300"/>
      <point x="720" y="1140" type="qcurve" smooth="yes"/>
      <point x="720" y="1036" type="line" smooth="yes"/>
      <point x="720" y="876"/>
      <point x="553" y="680"/>
      <point x="393" y="680" type="qcurve" smooth="yes"/>
      <point x="233" y="680"/>
      <point x="67" y="876"/>
    </contour>
    <contour>
      <point x="231" y="1036" type="line" smooth="yes"/>
      <point x="231" y="868"/>
      <point x="315" y="687"/>
      <point x="393" y="687" type="qcurve" smooth="yes"/>
      <point x="472" y="687"/>
      <point x="556" y="868"/>
      <point x="556" y="1036" type="qcurve" smooth="yes"/>
      <point x="556" y="1138" type="line" smooth="yes"/>
      <point x="556" y="1307"/>
      <point x="472" y="1489"/>
      <point x="393" y="1489" type="qcurve" smooth="yes"/>
      <point x="315" y="1489"/>
      <point x="231" y="1307"/>
      <point x="231" y="1138" type="qcurve" smooth="yes"/>
    </contour>
  </outline>
</glyph>
